<?xml version="1.0" encoding="UTF-8" standalone="no"?>
<!DOCTYPE svg PUBLIC "-//W3C//DTD SVG 1.1//EN" "http://www.w3.org/Graphics/SVG/1.1/DTD/svg11.dtd">
<svg width="100%" height="100%" viewBox="0 0 55 55" version="1.1" xmlns="http://www.w3.org/2000/svg" xmlns:xlink="http://www.w3.org/1999/xlink" xml:space="preserve" style="fill-rule:evenodd;clip-rule:evenodd;stroke-linejoin:round;stroke-miterlimit:1.41421;">
    <g transform="matrix(0.98499,0,0,0.98499,-1808.04,-1287.2)">
        <g transform="matrix(0.474,0,0,0.474,1013.66,709.03)">
            <g transform="matrix(0.782323,0,0,0.782323,331.341,281.336)">
                <path d="M1845.64,1329.03C1846.17,1328.65 1846.43,1328.18 1846.43,1327.6C1846.43,1327.01 1846.22,1326.48 1845.8,1326.01C1845.37,1325.53 1844.89,1325.29 1844.36,1325.29C1843.78,1325.29 1843.12,1325.53 1842.38,1326.01C1829.39,1333.11 1820.88,1337.93 1816.85,1340.48C1815.53,1341.33 1814.86,1342.28 1814.86,1343.34C1814.86,1344.56 1815.58,1345.59 1817.01,1346.44L1843.25,1360.44C1843.94,1360.81 1844.63,1360.99 1845.32,1360.99C1845.85,1360.99 1846.31,1360.71 1846.71,1360.16C1847.11,1359.6 1847.31,1359.03 1847.31,1358.45C1847.31,1357.87 1846.96,1357.39 1846.27,1357.02C1844.42,1355.96 1840.2,1353.82 1833.63,1350.62C1827.06,1347.41 1822.28,1344.98 1819.32,1343.34C1821.86,1341.86 1826.31,1339.38 1832.67,1335.9C1839.04,1332.43 1843.36,1330.14 1845.64,1329.03Z" style="fill:rgb(108,108,108);fill-rule:nonzero;"/>
            </g>
            <g transform="matrix(0.782323,0,0,0.782323,331.341,281.336)">
                <path d="M1844.58,1323.27C1845.09,1323.32 1845.57,1323.43 1846.02,1323.66C1846.45,1323.87 1846.84,1324.17 1847.17,1324.52C1847.54,1324.9 1847.85,1325.34 1848.07,1325.82C1848.42,1326.58 1848.54,1327.45 1848.39,1328.27C1848.35,1328.51 1848.29,1328.73 1848.2,1328.95C1848.06,1329.31 1847.86,1329.64 1847.61,1329.94C1847.34,1330.27 1847,1330.56 1846.63,1330.79C1846.29,1330.97 1845.94,1331.13 1845.6,1331.31C1845.22,1331.5 1844.85,1331.69 1844.47,1331.88C1841.61,1333.37 1838.77,1334.9 1835.93,1336.43C1832.46,1338.32 1829,1340.22 1825.55,1342.13L1823.97,1343.01L1823.5,1343.28C1824.64,1343.88 1825.8,1344.47 1826.95,1345.05C1831.28,1347.23 1835.65,1349.34 1840,1351.5C1841.14,1352.06 1842.27,1352.63 1843.4,1353.21C1844.42,1353.73 1845.43,1354.25 1846.43,1354.79C1846.82,1355 1846.9,1355.05 1847.27,1355.26C1847.46,1355.36 1847.64,1355.48 1847.82,1355.61C1848.4,1356.03 1848.87,1356.6 1849.12,1357.28C1849.35,1357.91 1849.37,1358.58 1849.26,1359.23C1849.14,1359.93 1848.86,1360.59 1848.47,1361.18C1847.93,1361.97 1847.18,1362.63 1846.25,1362.89C1845.81,1363.01 1845.37,1363.03 1844.92,1363C1844.06,1362.94 1843.24,1362.69 1842.47,1362.31C1833.6,1357.69 1824.83,1352.9 1816.01,1348.2C1815.29,1347.77 1814.62,1347.27 1814.08,1346.63C1813.67,1346.15 1813.34,1345.6 1813.13,1345.01C1812.96,1344.54 1812.86,1344.04 1812.84,1343.53C1812.83,1343.17 1812.86,1342.81 1812.93,1342.45C1813.19,1341.16 1814.01,1340.1 1815.02,1339.3C1815.66,1338.8 1816.36,1338.39 1817.05,1337.98C1817.55,1337.67 1818.05,1337.37 1818.56,1337.07C1819.46,1336.53 1820.01,1336.21 1820.92,1335.67C1821.85,1335.14 1822.78,1334.6 1823.71,1334.07C1825.36,1333.13 1827.01,1332.2 1828.66,1331.27C1830.63,1330.17 1832.6,1329.08 1834.56,1327.99C1836.82,1326.74 1839.09,1325.5 1841.35,1324.26C1841.51,1324.16 1841.66,1324.07 1841.82,1323.98C1842.3,1323.73 1842.8,1323.52 1843.33,1323.39C1843.6,1323.33 1843.87,1323.29 1844.15,1323.27C1844.37,1323.27 1844.37,1323.27 1844.58,1323.27ZM1844.19,1358.65C1844.47,1358.79 1844.76,1358.91 1845.07,1358.95L1845.08,1358.95C1845.13,1358.89 1845.17,1358.82 1845.2,1358.75L1845.21,1358.74C1843.22,1357.62 1841.17,1356.6 1839.12,1355.58C1836.21,1354.12 1833.28,1352.7 1830.36,1351.26L1830.3,1351.24C1834.93,1353.71 1839.56,1356.18 1844.19,1358.65ZM1817.46,1342.53C1817.3,1342.66 1817.14,1342.81 1817.02,1342.98C1816.97,1343.06 1816.91,1343.15 1816.89,1343.25C1816.88,1343.35 1816.89,1343.45 1816.91,1343.55C1816.93,1343.62 1816.96,1343.7 1816.99,1343.77C1817.05,1343.87 1817.12,1343.96 1817.2,1344.05C1817.32,1344.18 1817.46,1344.3 1817.6,1344.41L1817.54,1344.31C1817.39,1344.01 1817.3,1343.7 1817.29,1343.36C1817.29,1343.2 1817.32,1343.04 1817.35,1342.88C1817.36,1342.82 1817.38,1342.77 1817.39,1342.72C1817.41,1342.66 1817.43,1342.61 1817.45,1342.56C1817.46,1342.53 1817.48,1342.51 1817.46,1342.53ZM1844.26,1327.33C1844.05,1327.38 1843.85,1327.48 1843.66,1327.59L1843.57,1327.64L1843.4,1327.75C1841.43,1328.83 1839.47,1329.9 1837.51,1330.99C1838.76,1330.31 1840.01,1329.65 1841.27,1328.99C1842.29,1328.45 1843.31,1327.92 1844.34,1327.41C1844.32,1327.39 1844.3,1327.37 1844.28,1327.35C1844.27,1327.33 1844.27,1327.33 1844.26,1327.33Z" style="fill:rgb(108,108,108);fill-rule:nonzero;"/>
            </g>
            <g transform="matrix(0.782323,0,0,0.782323,337.225,281.336)">
                <path d="M1883.41,1329.03C1885.69,1330.14 1890.01,1332.43 1896.37,1335.9C1902.73,1339.38 1907.18,1341.86 1909.73,1343.34C1906.76,1344.98 1901.99,1347.41 1895.41,1350.62C1888.84,1353.82 1884.63,1355.96 1882.77,1357.02C1882.08,1357.39 1881.74,1357.87 1881.74,1358.45C1881.74,1359.03 1881.94,1359.6 1882.33,1360.16C1882.73,1360.71 1883.19,1360.99 1883.73,1360.99C1884.41,1360.99 1885.1,1360.81 1885.79,1360.44L1912.03,1346.44C1913.47,1345.59 1914.18,1344.56 1914.18,1343.34C1914.18,1342.28 1913.52,1341.33 1912.19,1340.48C1908.16,1337.93 1899.65,1333.11 1886.67,1326.01C1885.92,1325.53 1885.26,1325.29 1884.68,1325.29C1884.15,1325.29 1883.67,1325.53 1883.25,1326.01C1882.82,1326.48 1882.61,1327.01 1882.61,1327.6C1882.61,1328.18 1882.88,1328.65 1883.41,1329.03Z" style="fill:rgb(108,108,108);fill-rule:nonzero;"/>
            </g>
            <g transform="matrix(0.782323,0,0,0.782323,337.225,281.336)">
                <path d="M1884.89,1323.27C1885.17,1323.29 1885.44,1323.33 1885.71,1323.39C1886.38,1323.55 1887,1323.84 1887.58,1324.19L1887.69,1324.26C1889.96,1325.5 1892.22,1326.74 1894.48,1327.99C1896.45,1329.08 1898.41,1330.17 1900.38,1331.27C1902.03,1332.2 1903.69,1333.13 1905.34,1334.07C1906.29,1334.62 1907.17,1335.12 1908.12,1335.67C1909.05,1336.22 1909.57,1336.52 1910.49,1337.07C1910.99,1337.37 1911.49,1337.67 1912,1337.98C1912.68,1338.39 1913.38,1338.8 1914.02,1339.29C1915.03,1340.09 1915.86,1341.16 1916.12,1342.45C1916.19,1342.8 1916.21,1343.16 1916.2,1343.53C1916.18,1344.03 1916.09,1344.53 1915.91,1345.01C1915.7,1345.6 1915.37,1346.15 1914.96,1346.63C1914.42,1347.27 1913.75,1347.77 1913.03,1348.2C1904.21,1352.9 1895.43,1357.68 1886.57,1362.31C1885.8,1362.69 1884.98,1362.94 1884.12,1363C1883.59,1363.04 1883.07,1363 1882.57,1362.82C1882.35,1362.74 1882.14,1362.64 1881.94,1362.52C1881.44,1362.22 1881.03,1361.81 1880.69,1361.34C1879.82,1360.13 1879.37,1358.45 1880.02,1357.04C1880.25,1356.54 1880.61,1356.1 1881.04,1355.75C1881.27,1355.56 1881.52,1355.4 1881.78,1355.26C1882.22,1355.01 1882.66,1354.76 1883.11,1354.52C1885.07,1353.48 1887.06,1352.49 1889.04,1351.5C1892.39,1349.83 1895.76,1348.2 1899.11,1346.55C1900.41,1345.9 1901.71,1345.25 1903.01,1344.59C1903.83,1344.17 1904.66,1343.74 1905.48,1343.32L1905.55,1343.28C1902.94,1341.81 1900.32,1340.37 1897.69,1338.93C1894.27,1337.06 1890.85,1335.2 1887.41,1333.37C1886.27,1332.76 1885.13,1332.16 1883.99,1331.58C1883.46,1331.31 1882.93,1331.06 1882.41,1330.79C1882.31,1330.72 1882.31,1330.72 1882.21,1330.66C1881.74,1330.31 1881.33,1329.89 1881.04,1329.37C1880.89,1329.1 1880.77,1328.81 1880.7,1328.5C1880.24,1326.68 1881.22,1324.68 1882.83,1323.76C1883.14,1323.58 1883.48,1323.45 1883.83,1323.37C1884.04,1323.31 1884.25,1323.29 1884.47,1323.27C1884.68,1323.27 1884.68,1323.27 1884.89,1323.27ZM1898.69,1351.26C1895.76,1352.7 1892.83,1354.12 1889.92,1355.58C1887.98,1356.55 1886.03,1357.53 1884.13,1358.57L1883.84,1358.74C1883.87,1358.81 1883.9,1358.87 1883.94,1358.93L1883.96,1358.95C1884.24,1358.92 1884.5,1358.82 1884.75,1358.7C1889.42,1356.26 1903.41,1348.94 1898.69,1351.26ZM1911.6,1342.56C1911.65,1342.72 1911.7,1342.87 1911.73,1343.04C1911.8,1343.52 1911.69,1343.99 1911.44,1344.41C1911.55,1344.33 1911.65,1344.24 1911.75,1344.15C1911.85,1344.05 1911.93,1343.95 1912.01,1343.84C1912.05,1343.77 1912.09,1343.69 1912.12,1343.61C1912.15,1343.5 1912.17,1343.37 1912.15,1343.25C1912.13,1343.14 1912.06,1343.04 1912,1342.95C1911.88,1342.79 1911.73,1342.65 1911.58,1342.53L1911.58,1342.52C1911.58,1342.54 1911.59,1342.55 1911.6,1342.56ZM1884.76,1327.35C1884.74,1327.38 1884.74,1327.38 1884.71,1327.41L1884.71,1327.41C1885.5,1327.81 1886.29,1328.21 1887.08,1328.62C1888.4,1329.31 1889.71,1330.01 1891.03,1330.71L1891.54,1330.99C1889.58,1329.9 1887.61,1328.83 1885.64,1327.75C1885.5,1327.66 1885.36,1327.57 1885.21,1327.49C1885.1,1327.44 1884.99,1327.39 1884.88,1327.35C1884.83,1327.34 1884.83,1327.34 1884.79,1327.33C1884.77,1327.33 1884.78,1327.33 1884.76,1327.35Z" style="fill:rgb(108,108,108);fill-rule:nonzero;"/>
            </g>
        </g>
        <g transform="matrix(1.80315,0.586069,-0.146517,0.450787,-962.419,-242.471)">
            <path d="M1675.28,1310.53C1675.31,1310.5 1675.33,1310.48 1675.36,1310.46C1675.45,1310.4 1675.55,1310.4 1675.64,1310.46C1675.94,1310.64 1676.2,1311.47 1676.33,1312.61C1676.37,1312.99 1676.39,1313.4 1676.39,1313.82C1676.47,1326.21 1676.4,1338.62 1676.4,1351.02C1676.39,1351.2 1676.39,1351.37 1676.38,1351.54C1676.37,1351.95 1676.34,1352.35 1676.29,1352.71C1676.17,1353.58 1675.96,1354.22 1675.72,1354.47C1675.64,1354.56 1675.55,1354.6 1675.45,1354.58C1675.37,1354.56 1675.28,1354.49 1675.19,1354.36C1675.1,1354.23 1675.01,1354.02 1674.93,1353.76C1674.84,1353.47 1674.77,1353.11 1674.71,1352.71C1674.67,1352.4 1674.64,1352.07 1674.62,1351.72C1674.61,1351.54 1674.61,1351.36 1674.61,1351.18C1674.53,1338.79 1674.6,1326.38 1674.6,1313.98C1674.61,1313.68 1674.61,1313.39 1674.63,1313.11C1674.68,1312.32 1674.8,1311.62 1674.96,1311.13C1675.03,1310.92 1675.11,1310.76 1675.19,1310.64C1675.23,1310.58 1675.23,1310.58 1675.28,1310.53Z" style="fill:rgb(108,108,108);fill-rule:nonzero;"/>
        </g>
        <g transform="matrix(0.897441,0,0,0.964584,246.577,46.2894)">
            <path d="M1827.82,1307C1828.36,1307.01 1828.89,1307.1 1829.4,1307.29C1830.05,1307.53 1830.64,1307.91 1831.13,1308.4C1831.62,1308.89 1832,1309.48 1832.24,1310.13C1832.42,1310.64 1832.52,1311.17 1832.53,1311.71C1832.63,1327.73 1832.83,1343.75 1832.53,1359.76C1832.51,1360.28 1832.42,1360.79 1832.24,1361.28C1832,1361.93 1831.62,1362.52 1831.13,1363.01C1830.64,1363.5 1830.05,1363.88 1829.4,1364.12C1828.89,1364.31 1828.36,1364.4 1827.82,1364.41C1810.4,1364.52 1792.97,1364.74 1775.56,1364.41C1775.04,1364.39 1774.53,1364.3 1774.04,1364.12C1773.39,1363.88 1772.8,1363.5 1772.31,1363.01C1771.82,1362.52 1771.43,1361.93 1771.2,1361.28C1771.01,1360.77 1770.92,1360.24 1770.91,1359.7C1770.81,1343.68 1770.6,1327.66 1770.91,1311.65C1770.92,1311.13 1771.02,1310.62 1771.2,1310.13C1771.43,1309.48 1771.82,1308.89 1772.31,1308.4C1772.8,1307.91 1773.39,1307.53 1774.04,1307.29C1774.55,1307.1 1775.08,1307.01 1775.62,1307C1793.02,1306.89 1810.42,1306.89 1827.82,1307ZM1775.69,1310.63C1775.55,1310.63 1775.4,1310.65 1775.26,1310.71C1774.97,1310.82 1774.73,1311.06 1774.61,1311.36C1774.56,1311.48 1774.54,1311.62 1774.54,1311.76C1774.43,1327.74 1773.83,1343.73 1774.54,1359.69C1774.54,1359.82 1774.57,1359.95 1774.62,1360.08C1774.75,1360.37 1774.99,1360.61 1775.29,1360.71C1775.4,1360.76 1775.52,1360.78 1775.64,1360.78C1793.02,1361.33 1810.43,1361.57 1827.8,1360.78C1827.94,1360.77 1828.07,1360.75 1828.2,1360.69C1828.47,1360.58 1828.7,1360.36 1828.81,1360.08C1828.87,1359.96 1828.89,1359.82 1828.9,1359.68C1829.4,1343.71 1829.61,1327.69 1828.9,1311.72C1828.89,1311.58 1828.86,1311.44 1828.8,1311.31C1828.68,1311.04 1828.45,1310.82 1828.17,1310.71C1828.06,1310.66 1827.93,1310.63 1827.8,1310.63C1810.44,1310.08 1793.06,1310.63 1775.69,1310.63Z" style="fill:rgb(108,108,108);fill-rule:nonzero;"/>
        </g>
        <g transform="matrix(0.926037,0,0,1,135.889,0)">
            <path d="M1893.19,1318.26C1893.25,1318.27 1893.32,1318.28 1893.38,1318.29C1893.62,1318.35 1893.86,1318.45 1894.06,1318.61C1894.21,1318.72 1894.34,1318.86 1894.45,1319.02C1894.7,1319.39 1894.8,1319.84 1894.73,1320.28C1894.7,1320.47 1894.63,1320.65 1894.55,1320.82C1894.46,1320.99 1894.34,1321.14 1894.2,1321.27C1893.97,1321.49 1893.68,1321.64 1893.38,1321.71C1893.21,1321.75 1893.17,1321.74 1893,1321.75L1839,1321.75C1838.83,1321.74 1838.79,1321.75 1838.62,1321.71C1838.32,1321.64 1838.03,1321.49 1837.8,1321.27C1837.66,1321.14 1837.54,1320.99 1837.45,1320.82C1837.37,1320.65 1837.3,1320.47 1837.27,1320.28C1837.19,1319.78 1837.34,1319.26 1837.67,1318.87C1837.79,1318.72 1837.93,1318.6 1838.1,1318.5C1838.32,1318.37 1838.56,1318.29 1838.81,1318.26C1838.87,1318.25 1838.94,1318.25 1839,1318.25L1893,1318.25C1893.06,1318.25 1893.13,1318.26 1893.19,1318.26Z" style="fill:rgb(108,108,108);fill-rule:nonzero;"/>
        </g>
        <g transform="matrix(1,0,0,1,1.09159,-0.56012)">
            <path d="M1854.09,1313.25C1854.17,1313.26 1854.26,1313.27 1854.35,1313.29C1854.58,1313.33 1854.79,1313.42 1854.99,1313.55C1855.13,1313.65 1855.26,1313.77 1855.37,1313.91C1855.74,1314.37 1855.85,1315 1855.66,1315.56C1855.59,1315.75 1855.5,1315.93 1855.37,1316.09C1855.22,1316.27 1855.04,1316.43 1854.84,1316.54C1854.68,1316.62 1854.52,1316.68 1854.35,1316.71C1854.26,1316.73 1854.17,1316.74 1854.09,1316.75C1850.39,1316.84 1846.7,1316.75 1843,1316.75C1842.91,1316.75 1842.83,1316.74 1842.74,1316.73C1842.57,1316.7 1842.4,1316.65 1842.24,1316.58C1842.03,1316.48 1841.84,1316.33 1841.69,1316.16C1841.55,1316.01 1841.44,1315.83 1841.37,1315.64C1841.31,1315.48 1841.27,1315.31 1841.26,1315.13C1841.24,1314.96 1841.26,1314.78 1841.29,1314.61C1841.4,1314.15 1841.69,1313.75 1842.09,1313.51C1842.26,1313.4 1842.45,1313.33 1842.65,1313.29C1842.74,1313.27 1842.83,1313.26 1842.91,1313.25C1846.64,1313.16 1850.36,1313.16 1854.09,1313.25Z" style="fill:rgb(108,108,108);fill-rule:nonzero;"/>
        </g>
        <g transform="matrix(1,0,0,1,-2.44619,-0.56012)">
            <path d="M1878.03,1313.25C1878.25,1313.26 1878.47,1313.3 1878.67,1313.38C1878.82,1313.45 1878.97,1313.53 1879.1,1313.64C1879.53,1313.99 1879.77,1314.53 1879.75,1315.08C1879.74,1315.27 1879.7,1315.46 1879.63,1315.64C1879.55,1315.84 1879.43,1316.02 1879.29,1316.18C1879.14,1316.35 1878.95,1316.49 1878.74,1316.59C1878.52,1316.69 1878.27,1316.74 1878.03,1316.75C1877.65,1316.75 1877.27,1316.77 1876.89,1316.75C1876.65,1316.73 1876.41,1316.66 1876.19,1316.55C1875.98,1316.44 1875.8,1316.3 1875.66,1316.12C1875.52,1315.96 1875.41,1315.77 1875.35,1315.57C1875.28,1315.39 1875.25,1315.19 1875.25,1315C1875.25,1314.83 1875.27,1314.66 1875.32,1314.51C1875.47,1314 1875.85,1313.58 1876.33,1313.38C1876.54,1313.3 1876.75,1313.26 1876.97,1313.25C1877.33,1313.25 1877.68,1313.25 1878.03,1313.25Z" style="fill:rgb(108,108,108);fill-rule:nonzero;"/>
        </g>
        <g transform="matrix(1,0,0,1,-0.44619,-0.56012)">
            <path d="M1883.03,1313.25C1883.25,1313.26 1883.47,1313.3 1883.67,1313.38C1883.82,1313.45 1883.97,1313.53 1884.1,1313.64C1884.53,1313.99 1884.77,1314.53 1884.75,1315.08C1884.74,1315.27 1884.7,1315.46 1884.63,1315.64C1884.55,1315.84 1884.43,1316.02 1884.29,1316.18C1884.14,1316.35 1883.95,1316.49 1883.74,1316.59C1883.52,1316.69 1883.27,1316.74 1883.03,1316.75C1882.65,1316.75 1882.27,1316.77 1881.89,1316.75C1881.65,1316.73 1881.41,1316.66 1881.19,1316.55C1880.98,1316.44 1880.8,1316.3 1880.66,1316.12C1880.52,1315.96 1880.41,1315.77 1880.35,1315.57C1880.28,1315.39 1880.25,1315.19 1880.25,1315C1880.25,1314.83 1880.27,1314.66 1880.32,1314.51C1880.47,1314 1880.85,1313.58 1881.33,1313.38C1881.54,1313.3 1881.75,1313.26 1881.97,1313.25C1882.33,1313.25 1882.68,1313.25 1883.03,1313.25Z" style="fill:rgb(108,108,108);fill-rule:nonzero;"/>
        </g>
    </g>
</svg>
