<?xml version="1.0" encoding="UTF-8" standalone="no"?>
<!DOCTYPE svg PUBLIC "-//W3C//DTD SVG 1.1//EN" "http://www.w3.org/Graphics/SVG/1.1/DTD/svg11.dtd">
<svg width="100%" height="100%" viewBox="0 0 55 55" version="1.1" xmlns="http://www.w3.org/2000/svg" xmlns:xlink="http://www.w3.org/1999/xlink" xml:space="preserve" style="fill-rule:evenodd;clip-rule:evenodd;stroke-linejoin:round;stroke-miterlimit:1.41421;">
    <g transform="matrix(1.71219,0,0,1.71219,-650.501,-1314.86)">
        <path d="M401.99,796C400.885,796 399.988,796.896 399.988,798.001C399.988,799.105 400.885,800 401.99,800C403.095,800 403.992,799.105 403.992,798.001C403.992,796.896 403.095,796 401.99,796M388.976,796C387.871,796 386.974,796.896 386.974,798.001C386.974,799.105 387.871,800 388.976,800C390.082,800 390.978,799.105 390.978,798.001C390.978,796.896 390.082,796 388.976,796M403.115,788L401.121,788L402.697,775.402L404.83,775.147L403.115,788ZM399.103,788L397.029,788L397.55,776.02L400.649,775.648L399.103,788ZM395.025,788L392.937,788L392.42,776.635L395.536,776.262L395.025,788ZM388.844,788L387.307,777.248L390.427,776.874L390.931,788L388.844,788ZM384.754,788L382.215,777.858L385.318,777.486L386.822,788L384.754,788ZM411.969,768.758C411.836,768.223 411.292,767.895 410.756,768.03L406.752,769.03C406.362,769.128 406.068,769.448 406.006,769.845L405.499,773.053L380.849,776.008C380.83,776.01 380.814,776.023 380.795,776.027C380.771,776.031 380.75,776.024 380.726,776.03C380.67,776.045 380.627,776.079 380.576,776.102C380.52,776.126 380.466,776.145 380.416,776.178C380.344,776.226 380.289,776.287 380.232,776.351C380.205,776.382 380.168,776.399 380.144,776.434C380.138,776.441 380.138,776.451 380.135,776.46C380.08,776.544 380.049,776.638 380.021,776.733C380.011,776.769 379.99,776.799 379.984,776.834C379.963,776.966 379.963,777.104 379.998,777.243L383.002,789.243L384.002,793.243C384.01,793.272 384.027,793.295 384.037,793.322C384.053,793.37 384.074,793.414 384.097,793.459C384.131,793.524 384.172,793.584 384.219,793.64C384.249,793.675 384.278,793.709 384.312,793.739C384.372,793.792 384.437,793.833 384.507,793.87C384.543,793.89 384.575,793.913 384.614,793.928C384.727,793.973 384.847,794 384.972,794L405.994,794C406.547,794 406.994,793.553 406.994,793.001C406.994,792.448 406.547,792 405.994,792L385.754,792L385.254,790L403.992,790C404.115,790 404.234,789.978 404.344,789.936C404.388,789.919 404.424,789.888 404.465,789.865C404.526,789.832 404.591,789.803 404.643,789.758C404.682,789.724 404.709,789.678 404.743,789.638C404.785,789.588 404.832,789.544 404.865,789.486C404.894,789.435 404.904,789.373 404.924,789.315C404.943,789.263 404.97,789.214 404.98,789.156L404.984,789.135L404.984,789.133L404.984,789.125L407.881,770.81L411.241,769.971C411.777,769.837 412.103,769.294 411.969,768.758" style="fill:rgb(255,255,255);fill-rule:nonzero;"/>
    </g>
</svg>
