<?xml version="1.0" encoding="UTF-8" standalone="no"?>
<!DOCTYPE svg PUBLIC "-//W3C//DTD SVG 1.1//EN" "http://www.w3.org/Graphics/SVG/1.1/DTD/svg11.dtd">
<svg width="100%" height="100%" viewBox="0 0 55 55" version="1.1" xmlns="http://www.w3.org/2000/svg" xmlns:xlink="http://www.w3.org/1999/xlink" xml:space="preserve" style="fill-rule:evenodd;clip-rule:evenodd;stroke-linejoin:round;stroke-miterlimit:1.41421;">
    <g transform="matrix(1.14579,0,0,1.14579,-1441.68,-353.756)">
        <g transform="matrix(1.48837,0,0,1.48837,978.355,-548.381)">
            <path d="M200.481,594.105L200.293,594.293C199.902,594.684 199.902,595.316 200.293,595.707C200.488,595.902 200.744,596 201,596C201.256,596 201.511,595.902 201.707,595.707L201.843,595.571M203.819,597.665L200.629,600.855L200.979,599.208C201.041,598.912 200.967,598.606 200.777,598.371C200.587,598.136 200.302,598 200,598L198,598L198,596C198,595.448 197.552,595 197,595L195.423,595L198.504,591.937M198.093,603.165L194.369,604.308C194.151,603.672 193.814,603.106 193.353,602.647C192.952,602.245 192.487,601.938 191.997,601.686L193.7,597L196,597L196,599C196,599.553 196.447,600 197,600L198.765,600L198.093,603.165ZM197.142,590.472L192.295,595.291C192.19,595.395 192.11,595.52 192.06,595.658L188.06,606.658C187.931,607.015 188.014,607.414 188.275,607.689C188.467,607.891 188.731,608 189,608C189.098,608 189.196,607.986 189.293,607.956L199.242,604.905C199.398,604.857 199.541,604.772 199.656,604.656L205.181,599.131" style="fill:rgb(255,255,255);fill-rule:nonzero;"/>
        </g>
        <g transform="matrix(1.48837,0,0,1.48837,978.355,-548.381)">
            <path d="M210.293,584.293L206.462,588.124L207.916,589.498L211.707,585.707C212.098,585.316 212.098,584.684 211.707,584.293C211.316,583.902 210.684,583.902 210.293,584.293M216.863,584.621L215.931,585.554C215.841,584.125 215.248,582.793 214.227,581.772C213.205,580.749 211.871,580.157 210.441,580.068L211.377,579.138L211.379,579.136C212.111,578.403 213.085,578 214.121,578C215.157,578 216.131,578.403 216.863,579.136C217.596,579.868 218,580.843 218,581.878C218,582.915 217.597,583.889 216.863,584.621M212.813,588.671L210.032,591.452L204.31,586.163L207.316,583.175L207.328,583.186C208.06,582.453 209.034,582.05 210.07,582.05C211.106,582.05 212.08,582.453 212.813,583.186C213.545,583.918 213.949,584.893 213.949,585.929C213.949,586.965 213.546,587.939 212.813,588.671M218.277,577.722C217.168,576.611 215.691,576 214.121,576C212.552,576 211.076,576.61 209.967,577.72L202.841,584.805L211.501,592.811L218.277,586.035C219.388,584.926 220,583.448 220,581.878C219.999,580.309 219.388,578.832 218.277,577.722" style="fill:rgb(255,255,255);fill-rule:nonzero;"/>
        </g>
        <g transform="matrix(-1.49435,0,0,1.49435,1682.84,-551.909)">
            <path d="M264.117,597.141C263.979,596.873 263.812,596.618 263.588,596.394C263.364,596.169 263.108,596.003 262.841,595.865L281.975,578.026L264.117,597.141ZM283.413,576.585C283.036,576.208 282.533,576 281.999,576L281.998,576C281.463,576 280.96,576.209 280.608,576.563L259.366,596.37C259.363,596.372 259.363,596.375 259.36,596.377C259.354,596.383 259.346,596.388 259.341,596.394C259.293,596.441 259.27,596.5 259.234,596.553C259.199,596.606 259.155,596.653 259.131,596.709C259.104,596.771 259.099,596.837 259.086,596.903C259.074,596.963 259.052,597.022 259.051,597.083C259.05,597.148 259.07,597.211 259.081,597.276C259.093,597.337 259.095,597.4 259.117,597.459C259.142,597.524 259.188,597.578 259.226,597.636C259.258,597.685 259.276,597.74 259.317,597.784C259.321,597.787 259.326,597.788 259.33,597.792C259.334,597.797 259.336,597.804 259.34,597.808C259.386,597.854 259.444,597.876 259.497,597.912C259.551,597.948 259.599,597.994 259.658,598.019C259.715,598.043 259.775,598.046 259.834,598.059C259.901,598.075 259.966,598.097 260.034,598.098C260.092,598.099 260.146,598.079 260.204,598.071C260.273,598.059 260.343,598.057 260.409,598.031C260.47,598.008 260.52,597.963 260.576,597.927C260.628,597.895 260.685,597.875 260.731,597.831L260.757,597.808C261.146,597.418 261.782,597.419 262.172,597.808C262.562,598.197 262.562,598.83 262.174,599.22L262.149,599.247C262.106,599.293 262.087,599.349 262.054,599.401C262.018,599.457 261.973,599.509 261.949,599.572C261.926,599.631 261.924,599.696 261.912,599.758C261.902,599.822 261.881,599.883 261.883,599.948C261.884,600.01 261.906,600.069 261.919,600.13C261.931,600.195 261.936,600.26 261.962,600.321C261.987,600.38 262.034,600.429 262.071,600.483C262.105,600.535 262.128,600.592 262.173,600.637C262.178,600.641 262.183,600.643 262.188,600.647C262.192,600.651 262.193,600.657 262.198,600.661C262.26,600.719 262.334,600.752 262.406,600.791C262.442,600.812 262.473,600.843 262.512,600.858C262.63,600.905 262.755,600.93 262.88,600.93C263.012,600.93 263.142,600.903 263.264,600.852C263.304,600.834 263.335,600.801 263.373,600.78C263.447,600.737 263.525,600.7 263.589,600.636C263.595,600.63 263.598,600.623 263.604,600.618C263.606,600.616 263.61,600.615 263.612,600.612L283.414,579.414C284.194,578.635 284.194,577.367 283.413,576.585M258.633,604.172C258.165,604.64 256.221,605.262 254.26,605.713C254.711,603.752 255.333,601.812 255.801,601.344C256.18,600.966 256.682,600.758 257.218,600.758C257.753,600.758 258.256,600.966 258.634,601.344C259.012,601.721 259.22,602.224 259.22,602.758C259.22,603.292 259.012,603.794 258.633,604.172M254.386,599.93C253.06,601.254 252.154,605.903 251.985,606.821C251.926,607.143 252.03,607.475 252.263,607.707C252.451,607.897 252.707,608 252.971,608C253.03,608 253.091,607.995 253.15,607.985C254.07,607.817 258.723,606.912 260.049,605.586C260.804,604.831 261.221,603.827 261.221,602.758C261.221,601.69 260.805,600.686 260.05,599.93C258.537,598.418 255.898,598.418 254.386,599.93" style="fill:rgb(255,255,255);fill-rule:nonzero;"/>
        </g>
    </g>
</svg>
