<?xml version="1.0" encoding="UTF-8" standalone="no"?>
<!DOCTYPE svg PUBLIC "-//W3C//DTD SVG 1.1//EN" "http://www.w3.org/Graphics/SVG/1.1/DTD/svg11.dtd">
<svg width="100%" height="100%" viewBox="0 0 55 55" version="1.1" xmlns="http://www.w3.org/2000/svg" xmlns:xlink="http://www.w3.org/1999/xlink" xml:space="preserve" style="fill-rule:evenodd;clip-rule:evenodd;stroke-linejoin:round;stroke-miterlimit:1.41421;">
    <g transform="matrix(0.98615,0,0,0.98615,-1868.5,-1288.73)">
        <g transform="matrix(0.116405,0,0,0.116405,1894.93,1307)">
            <path d="M400.85,181L400.85,162.7C400.85,118.9 385.35,78.2 357.25,48C328.45,17 288.85,0 245.65,0L230.55,0C187.35,0 147.75,17 118.95,48C90.85,78.2 75.35,118.9 75.35,162.7L75.35,181C41.25,183.3 14.15,211.7 14.15,246.4L14.15,275C14.15,311.1 43.55,340.5 79.65,340.5L116.55,340.5C123.15,340.5 128.55,335.1 128.55,328.5L128.55,192.8C128.55,186.2 123.15,180.8 116.55,180.8L99.35,180.8L99.35,162.7C99.35,83.6 155.75,24 230.45,24L245.55,24C320.35,24 376.65,83.6 376.65,162.7L376.65,180.8L359.45,180.8C352.85,180.8 347.45,186.2 347.45,192.8L347.45,328.4C347.45,335 352.85,340.4 359.45,340.4L376.25,340.4C371.35,403 328.25,417.5 308.25,420.8C302.75,403.9 286.85,391.7 268.15,391.7L238.15,391.7C214.95,391.7 196.05,410.6 196.05,433.8C196.05,457 214.95,476 238.15,476L268.25,476C287.65,476 303.95,462.8 308.85,445C318.65,443.6 334.15,440.1 349.55,431.1C371.25,418.4 396.95,392.5 400.35,340.3C434.65,338.2 461.85,309.7 461.85,274.9L461.85,246.3C461.95,211.7 434.95,183.2 400.85,181ZM104.75,316.4L79.85,316.4C56.95,316.4 38.35,297.8 38.35,274.9L38.35,246.3C38.35,223.4 56.95,204.8 79.85,204.8L104.75,204.8L104.75,316.4ZM268.25,452L238.15,452C228.15,452 220.05,443.9 220.05,433.9C220.05,423.9 228.15,415.8 238.15,415.8L268.25,415.8C278.25,415.8 286.35,423.9 286.35,433.9C286.35,443.9 278.25,452 268.25,452ZM437.95,274.9C437.95,297.8 419.35,316.4 396.45,316.4L371.55,316.4L371.55,204.8L396.45,204.8C419.35,204.8 437.95,223.4 437.95,246.3L437.95,274.9Z" style="fill:rgb(255,255,255);fill-rule:nonzero;"/>
        </g>
        <g transform="matrix(0.116405,0,0,0.116405,1894.93,1307)">
            <path d="M269.956,390.233C274.062,390.441 278.103,391.139 282.008,392.444C290.868,395.405 298.662,401.267 304.001,408.929C306.117,411.967 307.799,415.251 309.114,418.708L309.255,419.1C323.29,416.538 336.795,410.58 347.572,401.145C350.895,398.236 353.944,395.02 356.673,391.549C360.574,386.589 363.808,381.119 366.377,375.359C369.429,368.514 371.558,361.285 372.955,353.928C373.71,349.949 374.232,345.935 374.614,341.904C369.329,341.904 364.04,342.091 358.758,341.886C357.298,341.793 355.87,341.502 354.508,340.962C351.056,339.595 348.256,336.795 346.888,333.343C346.348,331.98 346.057,330.552 345.965,329.092C344.193,283.465 344.193,237.735 345.965,192.108C346.057,190.648 346.348,189.22 346.888,187.858C348.297,184.302 351.226,181.44 354.816,180.12C356.304,179.573 357.857,179.319 359.439,179.296L375.146,179.296C375.146,173.153 375.17,167.009 375.136,160.866C375.106,159.042 375.107,159.045 375.055,157.221C374.868,152.449 374.525,147.691 373.935,142.95C372.594,132.177 370.111,121.542 366.443,111.321C362.044,99.058 355.932,87.405 348.217,76.901C338.553,63.744 326.386,52.46 312.453,43.941C304.306,38.959 295.581,34.934 286.51,31.95C278.186,29.212 269.578,27.352 260.872,26.364C256.355,25.852 251.825,25.599 247.281,25.514C241.095,25.477 234.908,25.477 228.721,25.514C224.183,25.599 219.659,25.852 215.147,26.364C206.447,27.352 197.846,29.213 189.528,31.95C180.46,34.934 171.736,38.96 163.591,43.941C148.281,53.301 135.132,65.992 125.044,80.82C117.67,91.659 111.943,103.598 107.953,116.081C104.616,126.521 102.485,137.33 101.499,148.242C101.064,153.054 100.88,157.874 100.853,162.704L100.853,179.296C106.316,179.296 111.783,179.115 117.242,179.314C117.697,179.344 118.146,179.389 118.598,179.453C119.807,179.653 120.982,179.987 122.099,180.496C125.38,181.989 127.978,184.783 129.229,188.163C129.699,189.433 129.951,190.759 130.036,192.108C131.809,237.769 131.805,283.532 130.036,329.192C129.95,330.541 129.699,331.867 129.229,333.137C127.901,336.725 125.052,339.652 121.493,341.062C120.131,341.602 118.702,341.893 117.242,341.986C104.434,342.483 91.604,342.077 78.785,341.998C76.225,341.948 73.674,341.787 71.133,341.464C66.461,340.869 61.853,339.774 57.412,338.206C49.003,335.238 41.228,330.565 34.628,324.571C26.641,317.319 20.438,308.138 16.721,298.009C15.004,293.332 13.815,288.46 13.185,283.517C12.862,280.976 12.701,278.424 12.651,275.864C12.598,265.766 12.596,255.668 12.651,245.57C12.692,243.379 12.81,241.194 13.05,239.016C13.633,233.723 14.853,228.504 16.677,223.501C19.605,215.464 24.103,208.014 29.822,201.656C36.215,194.546 44.121,188.811 52.881,184.975C59.221,182.198 65.935,180.466 72.809,179.709L73.62,179.63L73.847,179.61C73.847,173.285 73.825,166.959 73.858,160.633C73.949,155.168 74.218,149.716 74.765,144.276C76.032,131.667 78.629,119.187 82.579,107.144C87.051,93.512 93.254,80.449 101.089,68.428C113.227,49.805 129.266,33.714 148.093,21.859C157.988,15.627 168.611,10.562 179.681,6.792C190.279,3.184 201.267,0.757 212.391,-0.494C217.748,-1.096 223.121,-1.391 228.509,-1.491C234.224,-1.526 239.939,-1.503 245.655,-1.503C251.054,-1.47 256.442,-1.241 261.816,-0.705C272.97,0.406 284.006,2.696 294.664,6.174C305.782,9.803 316.474,14.724 326.45,20.83C345.987,32.788 362.614,49.254 375.111,68.428C382.946,80.449 389.15,93.512 393.621,107.144C397.783,119.833 400.437,133.003 401.627,146.301C402.115,151.755 402.325,157.221 402.353,162.696L402.353,179.607C403.238,179.68 404.119,179.78 405,179.885C406.067,180.026 407.129,180.187 408.19,180.366C414.674,181.547 420.953,183.606 426.829,186.602C434.636,190.582 441.632,196.111 447.329,202.768C452.718,209.063 456.926,216.36 459.654,224.186C461.139,228.447 462.188,232.858 462.779,237.331C463.136,240.034 463.306,242.75 463.351,245.475C463.388,255.561 463.422,265.648 463.348,275.733C463.313,277.658 463.221,279.578 463.033,281.494C462.485,287.079 461.233,292.593 459.307,297.865C456.363,305.924 451.85,313.385 446.106,319.757C439.686,326.88 431.734,332.606 422.935,336.42C418.563,338.315 413.989,339.74 409.314,340.662C406.921,341.133 404.508,341.456 402.08,341.68L401.76,341.706C401.639,343.289 401.501,344.869 401.347,346.449C401.183,348.009 401.001,349.566 400.802,351.122C399.6,359.934 397.717,368.639 394.836,377.062C390.209,390.594 383.059,403.236 373.387,413.807C369.548,418.002 365.339,421.856 360.832,425.322C354.864,429.911 348.376,433.804 341.548,436.969C331.85,441.464 321.527,444.469 310.99,446.197L310.025,446.346C309.775,447.158 309.775,447.155 309.508,447.96C309.211,448.797 309.213,448.794 308.899,449.628C307.477,453.177 305.672,456.541 303.408,459.626C298.027,466.957 290.389,472.539 281.739,475.365C277.671,476.694 273.461,477.356 269.189,477.494C258.469,477.608 247.746,477.695 237.027,477.489C231.222,477.305 225.518,476.034 220.223,473.624C215.432,471.443 211.051,468.389 207.335,464.662C204.118,461.434 201.404,457.706 199.327,453.65C197.785,450.639 196.596,447.449 195.791,444.163C193.488,434.766 194.418,424.692 198.407,415.877C200.142,412.042 202.442,408.467 205.197,405.285C209.094,400.786 213.907,397.095 219.267,394.506C224.997,391.738 231.238,390.322 237.587,390.2C248.375,390.126 259.172,389.901 269.956,390.233ZM230.555,1.503C225.252,1.537 219.961,1.761 214.682,2.287C203.743,3.377 192.921,5.622 182.469,9.033C171.573,12.588 161.096,17.411 151.32,23.395C132.162,35.12 115.862,51.269 103.608,70.069C95.915,81.872 89.826,94.697 85.436,108.081C81.554,119.918 79.002,132.184 77.757,144.577C77.151,150.604 76.885,156.648 76.854,162.704L76.854,181C76.832,181.148 76.831,181.301 76.787,181.443C76.653,181.878 76.322,182.234 75.898,182.4C75.759,182.454 75.607,182.466 75.461,182.499C74.421,182.576 73.385,182.671 72.349,182.785C65.804,183.589 59.417,185.31 53.405,188.033C46.878,190.99 40.862,195.042 35.659,199.969C28.478,206.771 22.889,215.234 19.502,224.53C17.761,229.308 16.595,234.291 16.039,239.345C15.81,241.426 15.696,243.513 15.658,245.606C15.603,255.679 15.605,265.753 15.658,275.827C15.706,278.272 15.859,280.71 16.168,283.137C16.769,287.856 17.905,292.507 19.544,296.973C23.094,306.648 29.021,315.418 36.649,322.345C42.76,327.894 49.925,332.261 57.676,335.106C62.142,336.745 66.793,337.881 71.512,338.481C73.94,338.79 76.378,338.944 78.824,338.992C91.578,339.07 104.345,339.478 117.089,338.983C118.221,338.911 119.329,338.685 120.386,338.266C123.158,337.168 125.374,334.887 126.409,332.093C126.773,331.11 126.967,330.083 127.033,329.039C128.798,283.481 128.802,237.82 127.033,192.262C126.967,191.218 126.773,190.19 126.409,189.207C125.345,186.335 123.028,183.998 120.148,182.943C118.985,182.516 117.775,182.321 116.539,182.303L99.35,182.303C99.195,182.279 99.034,182.278 98.885,182.23C98.431,182.082 98.068,181.719 97.92,181.264C97.872,181.115 97.871,180.955 97.846,180.8C97.846,174.144 97.819,167.488 97.857,160.832C97.95,155.328 98.252,149.839 98.87,144.368C100.054,133.895 102.292,123.537 105.621,113.535C109.671,101.368 115.343,89.734 122.558,79.128C132.886,63.948 146.349,50.958 162.022,41.375C170.365,36.274 179.3,32.151 188.588,29.094C197.101,26.293 205.904,24.388 214.808,23.377C219.42,22.853 224.045,22.595 228.684,22.507C234.895,22.47 241.107,22.47 247.318,22.507C251.963,22.594 256.593,22.853 261.211,23.377C270.121,24.387 278.931,26.292 287.45,29.094C296.74,32.15 305.677,36.273 314.022,41.375C329.223,50.67 342.353,63.175 352.543,77.78C360.521,89.215 366.685,101.889 370.922,115.166C374.137,125.239 376.255,135.649 377.324,146.166C377.883,151.662 378.122,157.173 378.153,162.696L378.153,180.8C378.128,180.955 378.128,181.115 378.079,181.264C377.932,181.719 377.568,182.082 377.114,182.23C376.965,182.278 376.804,182.279 376.65,182.303C370.737,182.303 364.821,182.102 358.912,182.317C357.692,182.397 356.505,182.653 355.378,183.131C352.799,184.224 350.715,186.362 349.684,188.965C349.265,190.022 349.04,191.129 348.968,192.262C347.2,237.786 347.2,283.414 348.968,328.938C349.04,330.071 349.265,331.178 349.684,332.235C350.78,335.001 353.06,337.231 355.854,338.257C357.015,338.684 358.226,338.879 359.46,338.897L376.249,338.897C376.412,338.924 376.581,338.925 376.737,338.978C377.214,339.142 377.583,339.543 377.707,340.031C377.747,340.191 377.734,340.36 377.748,340.524C377.627,341.981 377.49,343.434 377.338,344.887C376.167,355.033 373.951,365.067 370.014,374.518C366.958,381.853 362.906,388.774 357.833,394.9C351.601,402.425 343.888,408.636 335.285,413.252C328.829,416.716 321.905,419.294 314.785,421.008C313.024,421.432 311.25,421.802 309.466,422.117C308.728,422.248 307.95,422.491 307.304,421.968C307.194,421.879 307.096,421.774 307.015,421.657C306.934,421.541 306.888,421.405 306.825,421.278C306.568,420.514 306.297,419.759 306.01,419.005C304.718,415.816 303.1,412.794 301.077,410.007C296.126,403.184 289.053,397.968 281.055,395.296C277.15,393.991 273.103,393.338 268.994,393.212C258.364,393.103 247.732,393.012 237.104,393.217C231.04,393.409 225.102,394.877 219.692,397.653C214.762,400.183 210.368,403.727 206.84,407.999C204.552,410.77 202.628,413.842 201.147,417.116C197.434,425.322 196.568,434.7 198.711,443.448C199.461,446.506 200.568,449.476 202.003,452.279C203.938,456.059 206.467,459.532 209.465,462.539C212.926,466.011 217.007,468.855 221.469,470.887C226.557,473.204 232.047,474.386 237.627,474.493C248.126,474.565 258.626,474.599 269.125,474.487C273.38,474.351 277.568,473.647 281.593,472.24C290.624,469.084 298.37,462.676 303.227,454.442C305.054,451.345 306.415,448.038 307.404,444.586L307.58,444.194C307.673,444.086 307.752,443.963 307.859,443.869C308.151,443.613 308.27,443.62 308.631,443.512C309.929,443.321 311.224,443.114 312.518,442.89C322.598,441.054 332.452,438.027 341.694,433.574C348.197,430.441 354.363,426.614 360.027,422.136C364.393,418.683 368.456,414.852 372.15,410.688C382.144,399.421 389.196,385.854 393.47,371.454C396.259,362.057 397.865,352.367 398.676,342.608L398.767,341.411L398.85,340.197L398.94,339.777C399.009,339.651 399.06,339.514 399.146,339.399C399.32,339.167 399.556,338.991 399.828,338.89C399.962,338.84 400.108,338.83 400.249,338.8C401.294,338.729 402.336,338.64 403.379,338.532C410.203,337.738 416.863,335.934 423.106,333.05C430.968,329.417 438.074,324.177 443.873,317.744C449.359,311.657 453.671,304.531 456.483,296.833C458.962,290.049 460.209,282.91 460.341,275.695C460.417,265.369 460.502,255.041 460.331,244.716C460.266,242.377 460.104,240.045 459.798,237.725C459.168,232.958 457.993,228.267 456.305,223.765C453.185,215.444 448.287,207.803 442.06,201.466C436.006,195.306 428.715,190.382 420.723,187.104C414.839,184.69 408.636,183.219 402.309,182.62L401.533,182.555L400.744,182.499L400.305,182.401C400.175,182.327 400.033,182.271 399.915,182.178C399.678,181.989 399.503,181.734 399.413,181.444C399.369,181.301 399.369,181.148 399.346,181C399.346,174.222 399.37,167.444 399.336,160.666C399.257,155.958 399.052,151.259 398.632,146.569C397.463,133.498 394.855,120.553 390.764,108.081C386.374,94.697 380.285,81.872 372.592,70.069C360.691,51.809 344.965,36.028 326.505,24.403C316.808,18.296 306.398,13.333 295.55,9.639C285.157,6.1 274.382,3.721 263.473,2.494C258.216,1.903 252.942,1.614 247.654,1.516C241.955,1.48 236.255,1.503 230.555,1.503ZM268.755,414.303C271.209,414.394 273.617,414.878 275.883,415.837C281.152,418.066 285.271,422.606 286.973,428.069C287.66,430.274 287.944,432.601 287.829,434.907C287.723,437.022 287.268,439.117 286.495,441.087C285.63,443.291 284.353,445.333 282.761,447.083C281.068,448.945 279.019,450.479 276.751,451.571C274.241,452.779 271.533,453.39 268.756,453.497C258.387,453.629 248.014,453.629 237.644,453.497C234.867,453.39 232.161,452.779 229.65,451.571C227.382,450.479 225.332,448.945 223.638,447.083C222.045,445.332 220.775,443.292 219.907,441.09C219.13,439.119 218.678,437.023 218.572,434.907C218.465,432.761 218.702,430.6 219.289,428.533C220.898,422.868 225.096,418.131 230.518,415.837C232.785,414.878 235.191,414.394 237.646,414.303C248.015,414.171 258.386,414.171 268.755,414.303ZM238.159,417.304C235.796,417.334 233.478,417.791 231.319,418.768C229.375,419.648 227.607,420.904 226.134,422.448C224.754,423.895 223.634,425.594 222.857,427.437C222.108,429.214 221.671,431.117 221.575,433.043C221.485,434.862 221.684,436.693 222.182,438.446C223.505,443.105 226.905,447.038 231.318,449.032C233.343,449.946 235.506,450.406 237.721,450.491C248.04,450.623 258.361,450.622 268.68,450.491C271.031,450.401 273.322,449.884 275.447,448.861C277.368,447.937 279.103,446.636 280.537,445.06C281.883,443.58 282.965,441.852 283.696,439.989C284.35,438.32 284.736,436.548 284.825,434.757C284.923,432.803 284.684,430.832 284.102,428.963C282.661,424.338 279.172,420.494 274.711,418.606C272.794,417.795 270.757,417.386 268.681,417.309C258.508,417.18 248.333,417.304 238.159,417.304ZM397.005,203.3C401.862,203.388 406.661,204.236 411.229,205.909C417.406,208.171 423.034,211.876 427.572,216.638C431.393,220.646 434.434,225.388 436.468,230.539C438.386,235.397 439.348,240.535 439.45,245.745C439.506,255.832 439.636,265.922 439.439,276.008C439.285,281.028 438.316,285.981 436.468,290.661C434.434,295.812 431.393,300.554 427.572,304.563C423.276,309.07 418.004,312.63 412.212,314.917C407.355,316.835 402.217,317.798 397.007,317.9L396.455,317.904L371.55,317.904L371.086,317.83C370.946,317.759 370.794,317.709 370.667,317.617C370.41,317.43 370.219,317.167 370.121,316.865C370.072,316.716 370.072,316.555 370.047,316.4L370.047,204.8C370.072,204.645 370.072,204.484 370.121,204.335C370.268,203.881 370.631,203.518 371.086,203.37C371.235,203.322 371.396,203.321 371.55,203.296C380.035,203.296 388.521,203.242 397.005,203.3ZM105.214,203.37C105.354,203.441 105.506,203.491 105.633,203.584C105.89,203.77 106.081,204.033 106.179,204.335C106.228,204.484 106.228,204.645 106.253,204.8L106.253,316.4C106.228,316.555 106.228,316.716 106.179,316.865C106.032,317.319 105.668,317.682 105.214,317.83C105.065,317.879 104.904,317.879 104.749,317.904C96.08,317.904 87.409,318.058 78.741,317.889C73.721,317.735 68.769,316.764 64.089,314.918C58.296,312.632 53.023,309.07 48.728,304.563C44.907,300.553 41.867,295.813 39.833,290.661C37.915,285.803 36.952,280.666 36.85,275.455C36.794,265.368 36.664,255.278 36.861,245.192C37.015,240.171 37.986,235.22 39.833,230.539C41.867,225.387 44.906,220.647 48.728,216.638C53.023,212.13 58.296,208.569 64.089,206.283C68.943,204.367 74.087,203.394 79.296,203.3L79.845,203.296L104.749,203.296C104.904,203.321 105.059,203.346 105.214,203.37ZM79.855,206.303C74.832,206.338 69.875,207.232 65.192,209.08C59.804,211.206 54.9,214.52 50.904,218.712C47.125,222.678 44.169,227.412 42.282,232.557C40.784,236.64 40,240.927 39.867,245.268C39.667,255.487 39.667,265.713 39.867,275.932C40,280.273 40.784,284.56 42.282,288.643C44.169,293.788 47.125,298.522 50.904,302.488C54.9,306.68 59.805,309.994 65.192,312.12C69.711,313.904 74.488,314.799 79.334,314.893L79.855,314.897L103.246,314.897L103.246,206.303C95.449,206.303 87.652,206.303 79.855,206.303ZM373.054,206.303L373.054,314.897C381.197,314.897 389.341,315.042 397.483,314.883C402.151,314.74 406.756,313.839 411.107,312.121C421.338,308.08 429.632,299.789 433.671,289.557C435.454,285.04 436.349,280.262 436.443,275.417C436.499,265.368 436.629,255.315 436.433,245.268C436.29,240.6 435.389,235.995 433.671,231.644C429.511,221.105 420.836,212.629 410.195,208.732C405.947,207.177 401.484,206.389 396.968,206.307C388.997,206.252 381.025,206.303 373.054,206.303Z" style="fill:rgb(255,255,255);fill-rule:nonzero;"/>
        </g>
    </g>
</svg>
