<?xml version="1.0" encoding="UTF-8" standalone="no"?>
<!DOCTYPE svg PUBLIC "-//W3C//DTD SVG 1.1//EN" "http://www.w3.org/Graphics/SVG/1.1/DTD/svg11.dtd">
<svg width="100%" height="100%" viewBox="0 0 55 55" version="1.1" xmlns="http://www.w3.org/2000/svg" xmlns:xlink="http://www.w3.org/1999/xlink" xml:space="preserve" style="fill-rule:evenodd;clip-rule:evenodd;stroke-linejoin:round;stroke-miterlimit:1.41421;">
    <g transform="matrix(1.71221,0,0,1.71221,-102.628,-1314.87)">
        <path d="M65,783C64.447,783 64,783.447 64,784C64,784.553 64.447,785 65,785C65.553,785 66,784.553 66,784C66,783.447 65.553,783 65,783M87,783C86.447,783 86,783.447 86,784C86,784.553 86.447,785 87,785C87.553,785 88,784.553 88,784C88,783.447 87.553,783 87,783M76,794C75.447,794 75,794.447 75,795C75,795.552 75.447,796 76,796C76.553,796 77,795.552 77,795C77,794.447 76.553,794 76,794M76,774C76.553,774 77,773.552 77,773C77,772.448 76.553,772 76,772C75.447,772 75,772.448 75,773C75,773.552 75.447,774 76,774M76,798C68.28,798 62,791.72 62,784C62,776.28 68.28,770 76,770C83.72,770 90,776.28 90,784C90,791.72 83.72,798 76,798M76,768C67.178,768 60,775.178 60,784C60,792.822 67.178,800 76,800C84.822,800 92,792.822 92,784C92,775.178 84.822,768 76,768M77.874,784.692L77.401,785.399L76.686,785.877C76.469,785.956 76.238,786 76,786C75.466,786 74.964,785.792 74.586,785.414C74.208,785.037 74,784.535 74,784C74,783.76 74.045,783.527 74.126,783.308L74.599,782.601L75.287,782.142C76.002,781.883 76.859,782.03 77.414,782.586C77.792,782.963 78,783.465 78,784C78,784.24 77.955,784.473 77.874,784.692M69.081,790.946L68.929,791.071L68.93,791.071L68.929,792.071L68.929,791.071L72.451,785.81C72.64,786.179 72.87,786.527 73.172,786.828C73.471,787.127 73.817,787.356 74.184,787.544L69.081,790.946ZM81.741,775.435L74.328,780.378C73.905,780.573 73.511,780.833 73.172,781.172C72.793,781.551 72.5,781.992 72.302,782.473L67.436,789.741C66.736,790.525 66.763,791.732 67.515,792.485C67.893,792.863 68.395,793.071 68.929,793.071C69.425,793.071 69.893,792.893 70.259,792.564L77.672,787.622C78.095,787.427 78.489,787.167 78.828,786.828C79.207,786.45 79.5,786.009 79.698,785.528L84.564,778.26C85.264,777.476 85.237,776.268 84.485,775.515C83.758,774.788 82.503,774.756 81.741,775.435" style="fill:rgb(255,255,255);fill-rule:nonzero;"/>
    </g>
</svg>
